# xmcd
#
# Track frame offsets:
#	150
#	17563
#	30346
#	41102
#	53346
#	65641
#	78061
#	93592
#	105379
#	117300
#	132334
#	144888
#
# Disc length: 2110 seconds
#
# Revision: 1
# Processed by: cddbd v1.5.2PL0 Copyright (c) Steve Scherf et al.
# Submitted via: audiograbber 1.83.01
#
DISCID=8e083c0c
DTITLE=Maureen Woods - From Me To You
DYEAR=1900
DGENRE=Country
TTITLE0=Dingo
TTITLE1=Seeing You With Her
TTITLE2=I Didn't Stop Dancing
TTITLE3=A Picture Of You
TTITLE4=To Daddy
TTITLE5=Cowboys Sweetheart
TTITLE6=There Won't Be Any Patches In Heaven
TTITLE7=You'd Still Find A Way To Cheat On Me
TTITLE8=You're Not There Anymore
TTITLE9=I Forgot To Remember To Forget
TTITLE10=I Hear You Calling Me
TTITLE11=Hobo's Meditation
EXTD=
EXTT0=
EXTT1=
EXTT2=
EXTT3=
EXTT4=
EXTT5=
EXTT6=
EXTT7=
EXTT8=
EXTT9=
EXTT10=
EXTT11=
PLAYORDER=
